<svg version="1.0" xmlns="http://www.w3.org/2000/svg" width="512.000000pt" height="512.000000pt" viewBox="0 0 512.000000 512.000000" preserveAspectRatio="xMidYMid meet">
  <g transform="translate(0.000000,512.000000) scale(0.100000,-0.100000)" fill="#000000" stroke="none">
    <path d="M855 4338 c-14 -21 -15 -125 -12 -1048 4 -1089 3 -1067 52 -1245 9 -33 18 -64 19 -70 16 -77 130 -325 194 -423 93 -145 232 -303 346 -396 21 -17 44 -36 51 -43 29 -27 216 -144 290 -181 259 -128 511 -184 805 -177 164 4 189 6 315 31 256 51 545 190 751 362 139 115 293 294 370 427 127 221 207 435 230 619 3 22 9 66 14 96 5 30 9 499 9 1042 1 977 1 988 -19 1008 -44 44 -81 23 -176 -98 -38 -48 -74 -94 -81 -102 -7 -8 -80 -100 -164 -205 -173 -218 -185 -232 -271 -338 l-63 -79 -951 -1 -951 -2 -109 139 c-60 76 -119 150 -131 165 -12 14 -111 139 -221 277 -171 215 -204 252 -232 258 -46 9 -47 8 -65 -16z"/>
  </g>
</svg>
